<?xml version="1.0" encoding="utf-8"?>
<!-- Generator: Adobe Illustrator 16.0.0, SVG Export Plug-In . SVG Version: 6.00 Build 0)  -->
<!DOCTYPE svg PUBLIC "-//W3C//DTD SVG 1.1//EN" "http://www.w3.org/Graphics/SVG/1.1/DTD/svg11.dtd">
<svg version="1.1" id="Livello_1" xmlns="http://www.w3.org/2000/svg" xmlns:xlink="http://www.w3.org/1999/xlink" x="0px" y="0px"
	 width="64px" height="64px" viewBox="0 0 64 64" enable-background="new 0 0 64 64" xml:space="preserve">
<g>
	<path fill="#F16192" d="M32,9.655c-8.683,0-15.724,7.041-15.724,15.724C16.276,37.793,32,54.345,32,54.345
		s15.725-16.552,15.725-28.965C47.725,16.696,40.683,9.655,32,9.655z M32,31.172c-3.199,0-5.793-2.593-5.793-5.793
		c0-3.201,2.594-5.793,5.793-5.793c3.2,0,5.793,2.592,5.793,5.793C37.793,28.58,35.2,31.172,32,31.172z"/>
	<path fill="#424C5C" d="M32,56c-0.454,0-0.887-0.186-1.199-0.516c-0.661-0.695-16.18-17.179-16.18-30.105
		C14.621,15.797,22.417,8,32,8c9.584,0,17.38,7.797,17.38,17.379c0,12.926-15.52,29.41-16.181,30.105C32.888,55.814,32.454,56,32,56
		z M32,11.31c-7.757,0-14.069,6.311-14.069,14.069c0,9.667,10.466,22.401,14.069,26.498c3.603-4.1,14.069-16.841,14.069-26.498
		C46.069,17.621,39.757,11.31,32,11.31z"/>
	<path fill="#424C5C" d="M32,32.827c-4.107,0-7.448-3.34-7.448-7.448s3.341-7.448,7.448-7.448c4.107,0,7.447,3.341,7.447,7.448
		S36.107,32.827,32,32.827z M32,21.241c-2.282,0-4.138,1.856-4.138,4.138c0,2.282,1.855,4.138,4.138,4.138s4.138-1.856,4.138-4.138
		C36.138,23.097,34.282,21.241,32,21.241z"/>
</g>
</svg>
